<svg width="67" height="40" viewBox="0 0 67 40" fill="none" xmlns="http://www.w3.org/2000/svg">
<path d="M26.6626 26.6817C26.5981 26.6817 26.5336 26.7247 26.5049 26.782C24.5846 30.852 20.8443 32.887 16.2297 32.887C9.1216 32.887 3.99831 27.7565 3.99831 20.025C3.99831 12.2935 9.12876 7.16305 16.2297 7.16305C21.138 7.16305 25.1077 9.31984 26.8561 13.4758C26.8919 13.5618 26.985 13.6048 27.071 13.5761L30.5534 12.5013C30.6466 12.4726 30.7039 12.3652 30.6681 12.272C28.6331 6.96958 23.001 3.61616 16.2369 3.61616C6.74267 3.60899 0 10.581 0 20.025C0 29.4691 6.74267 36.441 16.2297 36.441C23.1372 36.441 28.7406 32.8368 30.7182 26.911C30.754 26.7963 30.6681 26.6817 30.5534 26.6817H26.6626Z" fill="black"/>
<path d="M32.1626 19.3515V20.6413C32.1626 20.9208 32.3848 21.1429 32.6642 21.1429H42.5669C42.8463 21.1429 43.0684 20.9208 43.0684 20.6413V19.3515C43.0684 19.0721 42.8463 18.8499 42.5669 18.8499H32.6642C32.3848 18.8499 32.1626 19.0721 32.1626 19.3515ZM43.0326 24.5035L37.3289 30.2C37.1355 30.3935 37.1355 30.7159 37.3289 30.9094L38.2461 31.8266C38.4396 32.02 38.762 32.02 38.9555 31.8266L44.6592 26.13C44.8526 25.9366 44.8526 25.6141 44.6592 25.4207L43.742 24.5035C43.5485 24.31 43.2261 24.31 43.0326 24.5035ZM38.2461 8.17345L37.3289 9.09062C37.1355 9.28409 37.1355 9.60653 37.3289 9.8L43.0326 15.5037C43.2261 15.6972 43.5485 15.6972 43.742 15.5037L44.6592 14.5865C44.8526 14.393 44.8526 14.0706 44.6592 13.8771L38.9555 8.17345C38.762 7.97998 38.4396 7.97998 38.2461 8.17345ZM48.0126 3.50875V13.4114C48.0126 13.6908 48.2347 13.913 48.5142 13.913H49.804C50.0834 13.913 50.3055 13.6908 50.3055 13.4114V3.50158C50.3055 3.22213 50.0834 3 49.804 3H48.5142C48.2347 3 48.0126 3.22213 48.0126 3.50158V3.50875ZM48.0126 26.5958V36.4984C48.0126 36.7779 48.2347 37 48.5142 37H49.804C50.0834 37 50.3055 36.7779 50.3055 36.4984V26.5958C50.3055 26.3163 50.0834 26.0942 49.804 26.0942H48.5142C48.2347 26.0942 48.0126 26.3163 48.0126 26.5958ZM54.5833 24.5106L53.6661 25.4278C53.4727 25.6213 53.4727 25.9437 53.6661 26.1372L59.3627 31.8337C59.5561 32.0272 59.8786 32.0272 60.072 31.8337L60.9892 30.9165C61.1827 30.7231 61.1827 30.4006 60.9892 30.2072L55.2927 24.5106C55.0992 24.3172 54.7768 24.3172 54.5833 24.5106ZM59.3627 8.18061L53.6661 13.8843C53.4727 14.0778 53.4727 14.4002 53.6661 14.5937L54.5833 15.5109C54.7768 15.7043 55.0992 15.7043 55.2927 15.5109L60.9892 9.80717C61.1827 9.6137 61.1827 9.29125 60.9892 9.09779L60.072 8.18061C59.8786 7.98715 59.5561 7.98715 59.3627 8.18061ZM55.2497 19.3587V20.6485C55.2497 20.9279 55.4718 21.1501 55.7513 21.1501H65.6539C65.9334 21.1501 66.1555 20.9279 66.1555 20.6485V19.3587C66.1555 19.0792 65.9334 18.8571 65.6539 18.8571H55.7513C55.4718 18.8571 55.2497 19.0792 55.2497 19.3587Z" fill="black"/>
</svg>
